HIERARCHY
ROOT Hips
{
    OFFSET 0.000000 0.000000 0.000000
    CHANNELS 6 Xposition Yposition Zposition Zrotation Xrotation Yrotation
    JOINT Spine
    {
        OFFSET 0.000003 8.467234 0.000016
        CHANNELS 3 Zrotation Xrotation Yrotation
        JOINT Spine1
        {
            OFFSET 0.000002 24.159163 0.000009
            CHANNELS 3 Zrotation Xrotation Yrotation
            JOINT Neck
            {
                OFFSET -0.000003 26.323065 -0.000017
                CHANNELS 3 Zrotation Xrotation Yrotation
                JOINT Head
                {
                    OFFSET -0.000001 16.024313 2.035161
                    CHANNELS 3 Zrotation Xrotation Yrotation
                    End Site
                    {
                        OFFSET 0.000000 20.351660 0.000000
                    }
                }
            }
            JOINT LeftShoulder
            {
                OFFSET 4.036570 20.304853 -0.371907
                CHANNELS 3 Zrotation Xrotation Yrotation
                JOINT LeftArm
                {
                    OFFSET 12.502551 -0.000005 0.000000
                    CHANNELS 3 Zrotation Xrotation Yrotation
                    JOINT LeftForeArm
                    {
                        OFFSET 31.806908 0.000003 0.000007
                        CHANNELS 3 Zrotation Xrotation Yrotation
                        JOINT LeftHand
                        {
                            OFFSET 24.843222 0.000000 0.000003
                            CHANNELS 3 Zrotation Xrotation Yrotation
                            JOINT LeftHandThumb1
                            {
                                OFFSET 2.126759 -2.416759 3.383464
                                CHANNELS 3 Zrotation Xrotation Yrotation
                                JOINT LeftHandThumb2
                                {
                                    OFFSET 3.212138 -0.000008 -0.000002
                                    CHANNELS 3 Zrotation Xrotation Yrotation
                                    JOINT LeftHandThumb3
                                    {
                                        OFFSET 2.745443 -0.000001 -0.000001
                                        CHANNELS 3 Zrotation Xrotation Yrotation
                                        End Site
                                        {
                                            OFFSET 2.793713 0.000000 0.000000
                                        }
                                    }
                                }
                            }
                            JOINT LeftHandIndex1
                            {
                                OFFSET 8.700325 -0.000002 3.383456
                                CHANNELS 3 Zrotation Xrotation Yrotation
                                JOINT LeftHandIndex2
                                {
                                    OFFSET 4.833524 0.000003 0.000005
                                    CHANNELS 3 Zrotation Xrotation Yrotation
                                    JOINT LeftHandIndex3
                                    {
                                        OFFSET 2.416751 -0.000003 -0.000004
                                        CHANNELS 3 Zrotation Xrotation Yrotation
                                        End Site
                                        {
                                            OFFSET 2.459254 0.000000 0.000000
                                        }
                                    }
                                }
                            }
                            JOINT LeftHandMiddle1
                            {
                                OFFSET 8.700338 0.000000 1.121374
                                CHANNELS 3 Zrotation Xrotation Yrotation
                                JOINT LeftHandMiddle2
                                {
                                    OFFSET 5.316879 0.000001 0.000002
                                    CHANNELS 3 Zrotation Xrotation Yrotation
                                    JOINT LeftHandMiddle3
                                    {
                                        OFFSET 2.900104 0.000001 0.000003
                                        CHANNELS 3 Zrotation Xrotation Yrotation
                                        End Site
                                        {
                                            OFFSET 2.951103 0.000000 0.000000
                                        }
                                    }
                                }
                            }
                            JOINT LeftHandRing1
                            {
                                OFFSET 8.216987 0.000000 -1.121377
                                CHANNELS 3 Zrotation Xrotation Yrotation
                                JOINT LeftHandRing2
                                {
                                    OFFSET 4.833524 0.000001 0.000004
                                    CHANNELS 3 Zrotation Xrotation Yrotation
                                    JOINT LeftHandRing3
                                    {
                                        OFFSET 2.416751 -0.000001 -0.000005
                                        CHANNELS 3 Zrotation Xrotation Yrotation
                                        End Site
                                        {
                                            OFFSET 2.459254 0.000000 0.000000
                                        }
                                    }
                                }
                            }
                            JOINT LeftHandPinky1
                            {
                                OFFSET 7.733622 0.000000 -3.383459
                                CHANNELS 3 Zrotation Xrotation Yrotation
                                JOINT LeftHandPinky2
                                {
                                    OFFSET 3.866815 0.000001 -0.000001
                                    CHANNELS 3 Zrotation Xrotation Yrotation
                                    JOINT LeftHandPinky3
                                    {
                                        OFFSET 1.933396 -0.000001 -0.000003
                                        CHANNELS 3 Zrotation Xrotation Yrotation
                                        End Site
                                        {
                                            OFFSET 1.967405 0.000000 0.000000
                                        }
                                    }
                                }
                            }
                        }
                    }
                }
            }
            JOINT RightShoulder
            {
                OFFSET -4.036568 20.304852 -0.371901
                CHANNELS 3 Zrotation Xrotation Yrotation
                JOINT RightArm
                {
                    OFFSET -12.502554 0.000003 -0.000011
                    CHANNELS 3 Zrotation Xrotation Yrotation
                    JOINT RightForeArm
                    {
                        OFFSET -31.806915 -0.000006 -0.000004
                        CHANNELS 3 Zrotation Xrotation Yrotation
                        JOINT RightHand
                        {
                            OFFSET -24.843237 0.000007 0.000003
                            CHANNELS 3 Zrotation Xrotation Yrotation
                            JOINT RightHandThumb1
                            {
                                OFFSET -2.126748 -2.416756 3.383465
                                CHANNELS 3 Zrotation Xrotation Yrotation
                                JOINT RightHandThumb2
                                {
                                    OFFSET -3.212134 0.000005 -0.000002
                                    CHANNELS 3 Zrotation Xrotation Yrotation
                                    JOINT RightHandThumb3
                                    {
                                        OFFSET -2.745437 0.000004 -0.000002
                                        CHANNELS 3 Zrotation Xrotation Yrotation
                                        End Site
                                        {
                                            OFFSET -2.793713 0.000000 0.000000
                                        }
                                    }
                                }
                            }
                            JOINT RightHandIndex1
                            {
                                OFFSET -8.700332 0.000004 3.383467
                                CHANNELS 3 Zrotation Xrotation Yrotation
                                JOINT RightHandIndex2
                                {
                                    OFFSET -4.833527 -0.000001 0.000001
                                    CHANNELS 3 Zrotation Xrotation Yrotation
                                    JOINT RightHandIndex3
                                    {
                                        OFFSET -2.416753 -0.000005 -0.000004
                                        CHANNELS 3 Zrotation Xrotation Yrotation
                                        End Site
                                        {
                                            OFFSET -2.459254 0.000000 0.000000
                                        }
                                    }
                                }
                            }
                            JOINT RightHandMiddle1
                            {
                                OFFSET -8.700326 -0.000007 1.121368
                                CHANNELS 3 Zrotation Xrotation Yrotation
                                JOINT RightHandMiddle2
                                {
                                    OFFSET -5.316862 -0.000001 -0.000003
                                    CHANNELS 3 Zrotation Xrotation Yrotation
                                    JOINT RightHandMiddle3
                                    {
                                        OFFSET -2.900109 0.000004 0.000001
                                        CHANNELS 3 Zrotation Xrotation Yrotation
                                        End Site
                                        {
                                            OFFSET -2.951103 0.000000 0.000000
                                        }
                                    }
                                }
                            }
                            JOINT RightHandRing1
                            {
                                OFFSET -8.216981 -0.000001 -1.121373
                                CHANNELS 3 Zrotation Xrotation Yrotation
                                JOINT RightHandRing2
                                {
                                    OFFSET -4.833527 -0.000001 0.000002
                                    CHANNELS 3 Zrotation Xrotation Yrotation
                                    JOINT RightHandRing3
                                    {
                                        OFFSET -2.416753 -0.000005 -0.000004
                                        CHANNELS 3 Zrotation Xrotation Yrotation
                                        End Site
                                        {
                                            OFFSET -2.459254 0.000000 0.000000
                                        }
                                    }
                                }
                            }
                            JOINT RightHandPinky1
                            {
                                OFFSET -7.733634 -0.000003 -3.383462
                                CHANNELS 3 Zrotation Xrotation Yrotation
                                JOINT RightHandPinky2
                                {
                                    OFFSET -3.866805 0.000002 -0.000002
                                    CHANNELS 3 Zrotation Xrotation Yrotation
                                    JOINT RightHandPinky3
                                    {
                                        OFFSET -1.933412 0.000003 0.000006
                                        CHANNELS 3 Zrotation Xrotation Yrotation
                                        End Site
                                        {
                                            OFFSET -1.967405 0.000000 0.000000
                                        }
                                    }
                                }
                            }
                        }
                    }
                }
            }
        }
    }
    JOINT LeftUpLeg
    {
        OFFSET 10.175829 0.000001 0.000011
        CHANNELS 3 Zrotation Xrotation Yrotation
        JOINT LeftLeg
        {
            OFFSET -0.000002 -42.882950 -0.000005
            CHANNELS 3 Zrotation Xrotation Yrotation
            JOINT LeftFoot
            {
                OFFSET 0.000000 -39.006771 -0.000007
                CHANNELS 3 Zrotation Xrotation Yrotation
                JOINT LeftToeBase
                {
                    OFFSET -0.000001 -6.614285 15.263753
                    CHANNELS 3 Zrotation Xrotation Yrotation
                    End Site
                    {
                        OFFSET 0.000000 0.000000 4.070332
                    }
                }
            }
        }
    }
    JOINT RightUpLeg
    {
        OFFSET -10.175829 -0.000001 -0.000011
        CHANNELS 3 Zrotation Xrotation Yrotation
        JOINT RightLeg
        {
            OFFSET 0.000000 -42.882946 0.000009
            CHANNELS 3 Zrotation Xrotation Yrotation
            JOINT RightFoot
            {
                OFFSET -0.000001 -39.006771 -0.000004
                CHANNELS 3 Zrotation Xrotation Yrotation
                JOINT RightToeBase
                {
                    OFFSET -0.000001 -6.614286 15.263737
                    CHANNELS 3 Zrotation Xrotation Yrotation
                    End Site
                    {
                        OFFSET 0.000000 0.000000 4.070332
                    }
                }
            }
        }
    }
}
MOTION
Frames:    4
Frame Time:    0.002778
-20.903168    86.734840    226.436737    10.368006    2.193823    7.378157    0.260467    6.321906    5.510302    1.302334    6.320351    5.395592    3.699052    -3.427713    -1.163503    3.699048    -3.427710    -1.163498    -3.395793    -1.005318    0.309221    -58.893219    1.171821    -6.730172    -27.652464    17.834719    -120.897644    18.223387    7.392322    22.313726    47.448219    38.866432    -34.355045    -35.000004    -0.000001    0.000010    -0.000000    0.000000    -0.000000    0.000000    10.000004    -0.000003    -0.000000    0.000000    -0.000000    -0.000000    0.000000    -0.000000    -0.000000    0.000000    -0.000000    -0.000000    0.000000    -0.000000    -0.000000    0.000000    -0.000000    -0.000000    0.000000    -0.000000    -0.000000    0.000000    -0.000000    -0.000000    0.000000    -0.000000    0.000005    -9.999987    0.000002    -0.000000    0.000000    -0.000000    -0.000000    0.000000    -0.000000    -2.847663    1.404836    1.612934    28.773981    -8.562930    33.754429    -21.415539    -17.532299    79.762581    -7.826178    5.462365    -33.544659    -47.448227    38.866428    34.355045    35.000008    -0.000007    -0.000010    -0.000000    0.000000    -0.000000    -0.000004    9.999997    0.000006    -0.000000    0.000000    -0.000000    -0.000000    0.000000    -0.000000    -0.000000    0.000000    -0.000000    -0.000000    0.000000    -0.000000    -0.000000    0.000000    -0.000000    -0.000000    0.000000    -0.000000    -0.000000    0.000000    -0.000000    -0.000000    0.000000    -0.000000    -0.000001    -10.000004    0.000006    -0.000000    0.000000    -0.000000    -0.000000    0.000000    -0.000000    8.810711    -19.644876    -4.753582    -0.000006    39.683865    0.000002    -12.915288    -23.849455    -3.042182    -0.000000    -1.916908    -0.000000    -20.959244    -24.865429    -12.962946    0.000001    65.210251    -0.000002    12.933894    -36.208317    -19.028584    -0.000000    -0.645606    -0.000003    
-20.834234    86.650932    226.445419    10.296404    2.096379    7.346136    0.254371    6.364282    5.493332    1.271860    6.362791    5.380557    3.676885    -3.426145    -1.101443    3.676883    -3.426146    -1.101444    -3.440416    -0.970032    0.312985    -58.937744    1.224910    -6.726474    -27.595005    17.814226    -120.920753    18.106966    7.345661    22.328850    47.448212    38.866440    -34.355030    -35.000008    0.000002    0.000003    -0.000000    0.000000    -0.000000    -0.000003    9.999997    -0.000003    -0.000000    0.000000    -0.000000    -0.000000    0.000000    -0.000000    -0.000000    0.000000    -0.000000    -0.000000    0.000000    -0.000000    -0.000000    0.000000    -0.000000    -0.000000    0.000000    -0.000000    -0.000000    0.000000    -0.000000    -0.000000    0.000000    -0.000000    -0.000003    -9.999997    -0.000000    -0.000000    0.000000    -0.000000    -0.000000    0.000000    -0.000000    -2.868395    1.442046    1.609966    29.009361    -8.079991    33.518475    -21.437582    -17.613941    79.997917    -7.712408    5.394879    -33.587757    -47.448208    38.866432    34.355030    34.999996    0.000003    0.000007    -0.000000    0.000000    -0.000000    0.000002    10.000005    -0.000002    -0.000000    0.000000    -0.000000    -0.000000    0.000000    -0.000000    -0.000000    0.000000    -0.000000    -0.000000    0.000000    -0.000000    -0.000000    0.000000    -0.000000    -0.000000    0.000000    -0.000000    -0.000000    0.000000    -0.000000    -0.000000    0.000000    -0.000000    -0.000004    -9.999996    -0.000008    -0.000000    0.000000    -0.000000    -0.000000    0.000000    -0.000000    8.862392    -19.661257    -4.800598    0.000002    40.082687    0.000001    -12.669411    -24.153805    -2.710232    -0.000000    -1.911768    0.000000    -20.949640    -24.879004    -12.960682    0.000001    65.409836    0.000001    12.979082    -36.241180    -18.949917    0.000000    -0.653093    0.000002    
-20.766151    86.569107    226.451965    10.227052    1.998283    7.300362    0.247743    6.407989    5.481337    1.238701    6.406561    5.370746    3.665909    -3.426702    -1.033757    3.665908    -3.426704    -1.033763    -3.488341    -0.944840    0.313611    -58.986191    1.314605    -6.731324    -27.588572    17.781321    -120.923332    18.160728    7.347962    22.270266    47.448208    38.866428    -34.355030    -35.000008    0.000001    0.000004    -0.000000    0.000000    -0.000000    -0.000003    9.999985    -0.000005    -0.000000    0.000000    -0.000000    -0.000000    0.000000    -0.000000    -0.000000    0.000000    -0.000000    -0.000000    0.000000    -0.000000    -0.000000    0.000000    -0.000000    -0.000000    0.000000    -0.000000    -0.000000    0.000000    -0.000000    -0.000000    0.000000    -0.000000    -0.000000    -10.000001    -0.000003    -0.000000    0.000000    -0.000000    -0.000000    0.000000    -0.000000    -2.893193    1.489334    1.597813    29.270761    -7.598737    33.267414    -21.437958    -17.692053    80.260216    -7.589591    5.315926    -33.605453    -47.448219    38.866440    34.355026    34.999992    0.000001    0.000010    -0.000000    0.000000    -0.000000    -0.000000    10.000003    0.000001    -0.000000    0.000000    -0.000000    -0.000000    0.000000    -0.000000    -0.000000    0.000000    -0.000000    -0.000000    0.000000    -0.000000    -0.000000    0.000000    -0.000000    -0.000000    0.000000    -0.000000    -0.000000    0.000000    -0.000000    -0.000000    0.000000    -0.000000    -0.000002    -10.000000    -0.000000    -0.000000    0.000000    -0.000000    -0.000000    0.000000    -0.000000    8.912173    -19.670729    -4.845755    -0.000002    40.476582    -0.000001    -12.490076    -24.454889    -2.388551    0.000001    -1.883827    0.000000    -20.941566    -24.899303    -12.957635    -0.000001    65.605385    -0.000000    13.012638    -36.262459    -18.873825    0.000001    -0.658958    -0.000005    
-20.696419    86.484665    226.459579    10.161460    1.903573    7.255919    0.242269    6.450075    5.467972    1.211336    6.448701    5.359112    3.629068    -3.419514    -0.968482    3.629070    -3.419513    -0.968484    -3.531054    -0.918038    0.329148    -59.036827    1.405771    -6.733056    -27.625069    17.748655    -120.905128    18.341217    7.385424    22.154995    47.448215    38.866428    -34.355030    -35.000000    -0.000002    -0.000016    -0.000000    0.000000    -0.000000    0.000003    10.000000    0.000003    -0.000000    0.000000    -0.000000    -0.000000    0.000000    -0.000000    -0.000000    0.000000    -0.000000    -0.000000    0.000000    -0.000000    -0.000000    0.000000    -0.000000    -0.000000    0.000000    -0.000000    -0.000000    0.000000    -0.000000    -0.000000    0.000000    -0.000000    -0.000004    -10.000008    -0.000004    -0.000000    0.000000    -0.000000    -0.000000    0.000000    -0.000000    -2.945054    1.552368    1.582907    29.517998    -7.074578    33.006618    -21.348440    -17.822866    80.566338    -7.525089    5.248281    -33.482353    -47.448223    38.866447    34.355034    35.000004    -0.000002    0.000000    -0.000000    0.000000    -0.000000    -0.000003    10.000001    -0.000003    -0.000000    0.000000    -0.000000    -0.000000    0.000000    -0.000000    -0.000000    0.000000    -0.000000    -0.000000    0.000000    -0.000000    -0.000000    0.000000    -0.000000    -0.000000    0.000000    -0.000000    -0.000000    0.000000    -0.000000    -0.000000    0.000000    -0.000000    -0.000006    -9.999997    -0.000010    -0.000000    0.000000    -0.000000    -0.000000    0.000000    -0.000000    8.960985    -19.680986    -4.889634    -0.000000    40.856377    0.000001    -12.289490    -24.729586    -2.032530    -0.000000    -1.882241    0.000000    -20.936686    -24.919577    -12.952486    0.000003    65.800880    -0.000003    13.033954    -36.292801    -18.803209    0.000000    -0.661795    0.000003    
